<?xml version="1.0" encoding="utf-8"?>
<!-- Generator: Adobe Illustrator 15.1.0, SVG Export Plug-In . SVG Version: 6.00 Build 0)  -->
<!DOCTYPE svg PUBLIC "-//W3C//DTD SVG 1.1//EN" "http://www.w3.org/Graphics/SVG/1.1/DTD/svg11.dtd">
<svg version="1.1" id="Layer_1" xmlns="http://www.w3.org/2000/svg" xmlns:xlink="http://www.w3.org/1999/xlink" x="0px" y="0px"
	 width="847px" height="133px" viewBox="0 0 847 133" enable-background="new 0 0 847 133" xml:space="preserve">
<g>
	<path fill="#FFFFFF" d="M332.627-289.586c-3.709,2.756-8.316,4.952-13.82,6.593c-5.508,1.641-11.492,2.462-17.951,2.462
		c-6.99,0-13.055-1.032-18.189-3.098c-5.139-2.064-9.348-5.004-12.629-8.816c-3.285-3.812-5.719-8.42-7.309-13.82
		c-1.588-5.401-2.383-11.438-2.383-18.109c0-14.298,3.52-25.232,10.564-32.805c7.043-7.57,17.078-11.358,30.104-11.358
		c4.131,0,8.262,0.452,12.391,1.351c4.131,0.9,7.836,2.596,11.121,5.083c3.281,2.489,5.957,5.905,8.021,10.247
		c2.066,4.344,3.098,10.008,3.098,16.997c0,1.695-0.055,3.653-0.158,5.878c-0.107,2.225-0.318,4.396-0.635,6.514h-59.572
		c0.211,9.744,2.541,17.104,6.99,22.08c4.447,4.98,12.018,7.467,22.717,7.467c4.447,0,8.682-0.768,12.707-2.303
		c4.023-1.535,7.148-3.361,9.373-5.481L332.627-289.586z M321.666-332.954c0.211-8.472-1.51-14.456-5.164-17.95
		c-3.652-3.496-8.764-5.242-15.328-5.242c-7.416,0-13.293,1.746-17.635,5.242c-4.344,3.494-6.885,9.479-7.625,17.95H321.666z"/>
	<path fill="#FFFFFF" d="M376.312-304.836c0,4.344,0.818,7.414,2.461,9.213c1.641,1.803,3.838,2.701,6.594,2.701
		c1.691,0,3.336-0.104,4.924-0.317c1.588-0.212,3.494-0.636,5.719-1.271l1.906,10.802c-1.059,0.425-2.33,0.821-3.812,1.191
		c-1.484,0.37-3.018,0.715-4.607,1.032c-1.588,0.318-3.176,0.557-4.766,0.715c-1.588,0.159-3.018,0.238-4.289,0.238
		c-5.719,0-10.273-1.457-13.662-4.368c-3.391-2.911-5.082-7.757-5.082-14.536v-94.52h14.615V-304.836z"/>
	<path fill="#FFFFFF" d="M429.688-304.836c0,4.344,0.818,7.414,2.463,9.213c1.641,1.803,3.838,2.701,6.592,2.701
		c1.693,0,3.336-0.104,4.926-0.317c1.588-0.212,3.494-0.636,5.719-1.271l1.906,10.802c-1.061,0.425-2.332,0.821-3.812,1.191
		c-1.484,0.37-3.02,0.715-4.607,1.032c-1.588,0.318-3.178,0.557-4.766,0.715c-1.588,0.159-3.018,0.238-4.289,0.238
		c-5.719,0-10.273-1.457-13.662-4.368c-3.391-2.911-5.084-7.757-5.084-14.536v-94.52h14.615V-304.836z"/>
	<path fill="#FFFFFF" d="M216.312-304.836c0,4.344,0.818,7.414,2.461,9.213c1.641,1.803,3.838,2.701,6.594,2.701
		c1.691,0,3.336-0.104,4.924-0.317c1.588-0.212,3.494-0.636,5.719-1.271l1.906,10.802c-1.059,0.425-2.33,0.821-3.812,1.191
		c-1.484,0.37-3.018,0.715-4.607,1.032c-1.588,0.318-3.176,0.557-4.766,0.715c-1.588,0.159-3.018,0.238-4.289,0.238
		c-5.719,0-10.273-1.457-13.662-4.368c-3.391-2.911-5.082-7.757-5.082-14.536v-94.52h14.615V-304.836z"/>
	<rect x="154.973" y="-333.624" fill="#FFFFFF" width="83.836" height="11.249"/>
</g>
<g>
	<path display="none" fill="#FFFFFF" d="M17.756-418.601c51.182,0,102.371,0,153.551,0c0,51.264,0,102.517,0,153.782
		c-51.223,0-102.443,0-153.666,0c0-51.146,0-102.289,0-153.436C17.631-418.418,17.622-418.581,17.756-418.601z M141.637-396.434
		c1.469-0.158,3.506,0.053,4.963-0.347c3.256-0.893,4.051-6.245,0.578-7.735c-1.098-0.471-2.658-0.333-4.156-0.23
		c-10.113,0.689-17.047,4.32-22.744,9.352c-1.146,1.012-2.131,2.131-3.232,3.232c-1.617,1.617-3.227,3.432-4.502,5.195
		c-0.461,0.635-0.65,1.437-1.387,1.848c-6.352-9.268-14.592-17.916-28.516-19.281c-4.998-0.489-9.795,0.404-14.086,1.732
		c-11.719,3.626-20.962,11.463-27.708,20.088c-2.405,3.076-4.241,6.373-6.119,9.93c-3.573,6.766-6.325,15.068-7.735,24.129
		c-1.486,9.55-0.878,20.465,1.616,28.979c4.747,16.201,14.625,28.349,32.442,31.403c-1.047,0.569-2.73,0.502-3.117,1.731
		c1.146,1.162,3.948,0.67,5.772,1.154c-0.397,0.864-0.874,1.765-1.386,2.655c-0.457,0.798-1.498,1.709-0.924,2.771
		c1.072,0.238,1.857-0.727,2.656-1.271c0.857-0.584,1.76-1.202,2.539-1.501c0.508,1.034,0.227,5.566,1.617,5.542
		c0.781-0.014,1.039-1.648,1.27-2.425c0.357-1.202,0.479-2.073,0.809-3.001c0.817,0.52,1.523,1.318,2.309,1.962
		c0.744,0.61,1.551,1.53,2.655,1.386c0.488-1.454-0.968-2.744-1.271-4.156c5.757,5.319,12.137,9.092,21.59,10.275
		c10.09,1.264,19.07-1.348,26.555-4.733c14.059-6.36,26.004-17.693,33.48-30.479c3.848-6.579,6.947-14.643,8.197-23.783
		c1.357-9.925,0.223-20.037-3.002-27.824c-6.105-14.746-20.053-23.291-41.678-22.051C124.615-389.11,130.643-395.25,141.637-396.434
		z"/>
	<path fill="#FFFFFF" d="M160.287-356.467c-5.273-12.737-17.322-20.119-36.002-19.047c4.744-6.24,9.949-11.543,19.447-12.566
		c1.27-0.137,3.029,0.047,4.287-0.299c2.812-0.771,3.5-5.395,0.498-6.682c-0.947-0.406-2.295-0.288-3.59-0.199
		c-8.734,0.596-14.723,3.732-19.645,8.078c-0.99,0.874-1.842,1.84-2.793,2.792c-1.396,1.396-2.787,2.964-3.889,4.487
		c-0.398,0.549-0.562,1.241-1.197,1.596c-5.488-8.005-12.605-15.476-24.633-16.654c-4.316-0.423-8.461,0.35-12.166,1.496
		c-10.123,3.133-18.108,9.901-23.936,17.353c-2.077,2.656-3.662,5.504-5.285,8.577c-3.087,5.844-5.464,13.016-6.682,20.842
		c-1.284,8.249-0.758,17.678,1.396,25.031c4.086,13.943,12.575,24.406,27.859,27.092c5.616-0.896,9.882,0.904,13.038,5.721
		c4.545,3.8,9.699,6.471,16.945,7.378c8.715,1.092,16.473-1.164,22.938-4.089c12.143-5.494,22.461-15.283,28.92-26.328
		c3.322-5.683,6-12.647,7.08-20.543C164.051-341.005,163.07-349.74,160.287-356.467C155.014-369.204,163.07-349.74,160.287-356.467z
		 M153.805-333.131c-1.084,7.109-3.527,13.283-6.682,18.25c-6.062,9.548-15.957,18.374-27.525,22.539
		c-3.215,1.157-6.635,2.036-10.471,2.094c-10.172,0.155-16.34-4.511-20.844-10.371c-0.887-1.155-1.664-2.419-2.691-3.49
		c-6.224,1.195-11.725,0.876-16.355-1.196c-4.31-1.929-7.551-5.135-9.974-8.876c-4.991-7.709-7.348-18.941-5.585-30.916
		c2.325-15.787,9.697-28.176,20.943-35.603c3.904-2.578,8.834-4.908,13.961-5.285c7.859-0.578,12.891,3.017,16.656,6.781
		c4.002,4.004,6.562,9.04,9.373,13.962c7.113-1.207,15.379-2.17,22.539-0.299c6.441,1.684,11.268,5.545,14.061,10.969
		C154.158-348.85,154.982-340.852,153.805-333.131z"/>
</g>
<g>
	<rect x="24.223" y="-333.597" fill="#FFFFFF" width="80.084" height="11.289"/>
	<polyline fill="#FFFFFF" points="26.141,-338.583 8.391,-327.576 24.891,-327.576 	"/>
	<polyline fill="#FFFFFF" points="26.141,-317.416 8.391,-328.423 24.891,-328.423 	"/>
	<ellipse fill="#FFFFFF" cx="104.474" cy="-327.905" rx="2.167" ry="5.691"/>
</g>
<text transform="matrix(0.9697 -0.2441 0.2441 0.9697 520.3291 -276.5078)" fill="#FFFFFF" font-family="'Chalkduster'" font-size="107">NOW</text>
<g>
	<path fill="#FFFFFF" d="M338.633-88.406c-3.709,2.756-8.316,4.952-13.82,6.593c-5.508,1.641-11.492,2.462-17.951,2.462
		c-6.99,0-13.055-1.032-18.189-3.098c-5.139-2.064-9.348-5.004-12.629-8.816c-3.285-3.812-5.719-8.42-7.309-13.82
		c-1.588-5.401-2.383-11.438-2.383-18.109c0-14.298,3.52-25.232,10.564-32.805c7.043-7.57,17.078-11.358,30.104-11.358
		c4.131,0,8.262,0.452,12.391,1.351c4.131,0.9,7.836,2.596,11.121,5.083c3.281,2.489,5.957,5.905,8.021,10.247
		c2.066,4.344,3.098,10.008,3.098,16.997c0,1.695-0.055,3.653-0.158,5.878c-0.107,2.225-0.318,4.396-0.635,6.514h-59.572
		c0.211,9.744,2.541,17.104,6.99,22.08c4.447,4.98,12.018,7.467,22.717,7.467c4.447,0,8.682-0.768,12.707-2.303
		c4.023-1.535,7.148-3.361,9.373-5.481L338.633-88.406z M327.672-131.774c0.211-8.472-1.51-14.456-5.164-17.95
		c-3.652-3.496-8.764-5.242-15.328-5.242c-7.416,0-13.293,1.746-17.635,5.242c-4.344,3.494-6.885,9.479-7.625,17.95H327.672z"/>
	<path fill="#FFFFFF" d="M382.318-103.656c0,4.344,0.818,7.414,2.461,9.213c1.641,1.803,3.838,2.701,6.594,2.701
		c1.691,0,3.336-0.104,4.924-0.317c1.588-0.212,3.494-0.636,5.719-1.271l1.906,10.802c-1.059,0.425-2.33,0.821-3.812,1.191
		c-1.484,0.37-3.018,0.715-4.607,1.032c-1.588,0.318-3.176,0.557-4.766,0.715c-1.588,0.159-3.018,0.238-4.289,0.238
		c-5.719,0-10.273-1.457-13.662-4.368c-3.391-2.911-5.082-7.757-5.082-14.536v-94.52h14.615V-103.656z"/>
	<path fill="#FFFFFF" d="M435.693-103.656c0,4.344,0.818,7.414,2.463,9.213c1.641,1.803,3.838,2.701,6.592,2.701
		c1.693,0,3.336-0.104,4.926-0.317c1.588-0.212,3.494-0.636,5.719-1.271l1.906,10.802c-1.061,0.425-2.332,0.821-3.812,1.191
		c-1.484,0.37-3.02,0.715-4.607,1.032c-1.588,0.318-3.178,0.557-4.766,0.715c-1.588,0.159-3.018,0.238-4.289,0.238
		c-5.719,0-10.273-1.457-13.662-4.368c-3.391-2.911-5.084-7.757-5.084-14.536v-94.52h14.615V-103.656z"/>
	<path fill="#FFFFFF" d="M222.318-103.656c0,4.344,0.818,7.414,2.461,9.213c1.641,1.803,3.838,2.701,6.594,2.701
		c1.691,0,3.336-0.104,4.924-0.317c1.588-0.212,3.494-0.636,5.719-1.271l1.906,10.802c-1.059,0.425-2.33,0.821-3.812,1.191
		c-1.484,0.37-3.018,0.715-4.607,1.032c-1.588,0.318-3.176,0.557-4.766,0.715c-1.588,0.159-3.018,0.238-4.289,0.238
		c-5.719,0-10.273-1.457-13.662-4.368c-3.391-2.911-5.082-7.757-5.082-14.536v-94.52h14.615V-103.656z"/>
	<rect x="160.979" y="-132.444" fill="#FFFFFF" width="83.836" height="11.249"/>
</g>
<g>
	<rect x="152.229" y="-132.417" fill="#FFFFFF" width="80.084" height="11.289"/>
	<polyline fill="#FFFFFF" points="154.146,-137.403 136.396,-126.396 152.896,-126.396 	"/>
	<polyline fill="#FFFFFF" points="154.146,-116.236 136.396,-127.243 152.896,-127.243 	"/>
	<ellipse fill="#FFFFFF" cx="232.479" cy="-126.726" rx="2.167" ry="5.691"/>
</g>
<text transform="matrix(0.9697 -0.2441 0.2441 0.9697 526.335 -75.3281)" fill="#FFFFFF" font-family="'Chalkduster'" font-size="107">NOW</text>
<g>
	<path fill="#FFFFFF" d="M333.627,115.414c-3.709,2.756-8.316,4.952-13.82,6.593c-5.508,1.641-11.492,2.462-17.951,2.462
		c-6.99,0-13.055-1.032-18.189-3.098c-5.139-2.064-9.348-5.004-12.629-8.816c-3.285-3.812-5.719-8.42-7.309-13.82
		c-1.588-5.401-2.383-11.438-2.383-18.109c0-14.298,3.52-25.232,10.564-32.805c7.043-7.57,17.078-11.358,30.104-11.358
		c4.131,0,8.262,0.452,12.391,1.351c4.131,0.9,7.836,2.596,11.121,5.083c3.281,2.489,5.957,5.905,8.021,10.247
		c2.066,4.344,3.098,10.008,3.098,16.997c0,1.695-0.055,3.653-0.158,5.878c-0.107,2.225-0.318,4.396-0.635,6.514h-59.572
		c0.211,9.744,2.541,17.104,6.99,22.08c4.447,4.98,12.018,7.467,22.717,7.467c4.447,0,8.682-0.768,12.707-2.303
		c4.023-1.535,7.148-3.361,9.373-5.481L333.627,115.414z M322.666,72.046c0.211-8.472-1.51-14.456-5.164-17.95
		c-3.652-3.496-8.764-5.242-15.328-5.242c-7.416,0-13.293,1.746-17.635,5.242c-4.344,3.494-6.885,9.479-7.625,17.95H322.666z"/>
	<path fill="#FFFFFF" d="M377.312,100.164c0,4.344,0.818,7.414,2.461,9.213c1.641,1.803,3.838,2.701,6.594,2.701
		c1.691,0,3.336-0.104,4.924-0.317c1.588-0.212,3.494-0.636,5.719-1.271l1.906,10.802c-1.059,0.425-2.33,0.821-3.812,1.191
		c-1.484,0.37-3.018,0.715-4.607,1.032c-1.588,0.318-3.176,0.557-4.766,0.715c-1.588,0.159-3.018,0.238-4.289,0.238
		c-5.719,0-10.273-1.457-13.662-4.368c-3.391-2.911-5.082-7.757-5.082-14.536v-94.52h14.615V100.164z"/>
	<path fill="#FFFFFF" d="M430.688,100.164c0,4.344,0.818,7.414,2.463,9.213c1.641,1.803,3.838,2.701,6.592,2.701
		c1.693,0,3.336-0.104,4.926-0.317c1.588-0.212,3.494-0.636,5.719-1.271l1.906,10.802c-1.061,0.425-2.332,0.821-3.812,1.191
		c-1.484,0.37-3.02,0.715-4.607,1.032c-1.588,0.318-3.178,0.557-4.766,0.715c-1.588,0.159-3.018,0.238-4.289,0.238
		c-5.719,0-10.273-1.457-13.662-4.368c-3.391-2.911-5.084-7.757-5.084-14.536v-94.52h14.615V100.164z"/>
	<path fill="#FFFFFF" d="M217.312,100.164c0,4.344,0.818,7.414,2.461,9.213c1.641,1.803,3.838,2.701,6.594,2.701
		c1.691,0,3.336-0.104,4.924-0.317c1.588-0.212,3.494-0.636,5.719-1.271l1.906,10.802c-1.059,0.425-2.33,0.821-3.812,1.191
		c-1.484,0.37-3.018,0.715-4.607,1.032c-1.588,0.318-3.176,0.557-4.766,0.715c-1.588,0.159-3.018,0.238-4.289,0.238
		c-5.719,0-10.273-1.457-13.662-4.368c-3.391-2.911-5.082-7.757-5.082-14.536v-94.52h14.615V100.164z"/>
	<rect x="155.973" y="71.376" fill="#FFFFFF" width="83.836" height="11.249"/>
</g>
<g>
	<path display="none" fill="#FFFFFF" d="M18.756-13.601c51.182,0,102.371,0,153.551,0c0,51.264,0,102.517,0,153.782
		c-51.223,0-102.443,0-153.666,0c0-51.146,0-102.289,0-153.436C18.631-13.418,18.621-13.581,18.756-13.601z M142.637,8.566
		c1.469-0.158,3.506,0.053,4.963-0.347c3.256-0.893,4.051-6.245,0.578-7.735c-1.098-0.471-2.658-0.333-4.156-0.23
		c-10.113,0.689-17.047,4.32-22.744,9.352c-1.146,1.012-2.131,2.131-3.232,3.232c-1.617,1.617-3.227,3.432-4.502,5.195
		c-0.461,0.635-0.65,1.437-1.387,1.848C105.805,10.613,97.564,1.965,83.641,0.6c-4.998-0.489-9.795,0.404-14.086,1.732
		C57.836,5.958,48.592,13.795,41.847,22.42c-2.405,3.076-4.241,6.373-6.119,9.93c-3.573,6.766-6.325,15.068-7.735,24.129
		c-1.486,9.55-0.878,20.465,1.616,28.979c4.747,16.201,14.625,28.349,32.442,31.403c-1.047,0.569-2.73,0.502-3.117,1.731
		c1.146,1.162,3.948,0.67,5.772,1.154c-0.397,0.864-0.874,1.765-1.386,2.655c-0.457,0.798-1.498,1.709-0.924,2.771
		c1.072,0.238,1.857-0.727,2.656-1.271c0.857-0.584,1.76-1.202,2.539-1.501c0.508,1.034,0.227,5.566,1.617,5.542
		c0.781-0.014,1.039-1.648,1.27-2.425c0.357-1.202,0.479-2.073,0.809-3.001c0.817,0.52,1.523,1.318,2.309,1.962
		c0.744,0.61,1.551,1.53,2.655,1.386c0.488-1.454-0.968-2.744-1.271-4.156c5.757,5.319,12.137,9.092,21.59,10.275
		c10.09,1.264,19.07-1.348,26.555-4.733c14.059-6.36,26.004-17.693,33.48-30.479c3.848-6.579,6.947-14.643,8.197-23.783
		c1.357-9.925,0.223-20.037-3.002-27.824c-6.105-14.746-20.053-23.291-41.678-22.051C125.615,15.89,131.643,9.75,142.637,8.566z"/>
	<path fill="#FFFFFF" d="M161.287,48.533c-5.273-12.737-17.322-20.119-36.002-19.047c4.744-6.24,9.949-11.543,19.447-12.566
		c1.27-0.137,3.029,0.047,4.287-0.299c2.812-0.771,3.5-5.395,0.498-6.682c-0.947-0.406-2.295-0.288-3.59-0.199
		c-8.734,0.596-14.723,3.732-19.645,8.078c-0.99,0.874-1.842,1.84-2.793,2.792c-1.396,1.396-2.787,2.964-3.889,4.487
		c-0.398,0.549-0.562,1.241-1.197,1.596c-5.488-8.005-12.605-15.476-24.633-16.654c-4.316-0.423-8.461,0.35-12.166,1.496
		c-10.123,3.133-18.108,9.901-23.936,17.353c-2.077,2.656-3.662,5.504-5.285,8.577c-3.087,5.844-5.464,13.016-6.682,20.842
		c-1.284,8.249-0.759,17.678,1.396,25.031c4.086,13.943,12.575,24.406,27.859,27.092c5.616-0.896,9.882,0.904,13.038,5.721
		c4.545,3.8,9.699,6.471,16.945,7.378c8.715,1.092,16.473-1.164,22.938-4.089c12.143-5.494,22.461-15.283,28.92-26.328
		c3.322-5.683,6-12.647,7.08-20.543C165.051,63.995,164.07,55.26,161.287,48.533C156.014,35.796,164.07,55.26,161.287,48.533z
		 M154.805,71.869c-1.084,7.109-3.527,13.283-6.682,18.25c-6.062,9.548-15.957,18.374-27.525,22.539
		c-3.215,1.157-6.635,2.036-10.471,2.094c-10.172,0.155-16.34-4.511-20.844-10.371c-0.887-1.155-1.664-2.419-2.691-3.49
		c-6.224,1.195-11.725,0.876-16.355-1.196c-4.31-1.929-7.551-5.135-9.974-8.876c-4.991-7.709-7.348-18.941-5.585-30.916
		c2.325-15.787,9.697-28.176,20.943-35.603c3.904-2.578,8.834-4.908,13.961-5.285c7.859-0.578,12.891,3.017,16.656,6.781
		c4.002,4.004,6.562,9.04,9.373,13.962c7.113-1.207,15.379-2.17,22.539-0.299c6.441,1.684,11.268,5.545,14.061,10.969
		C155.158,56.15,155.982,64.148,154.805,71.869z"/>
</g>
<g>
	<rect x="25.223" y="71.403" fill="#FFFFFF" width="80.084" height="11.289"/>
	<polyline fill="#FFFFFF" points="27.141,66.417 9.391,77.424 25.891,77.424 	"/>
	<polyline fill="#FFFFFF" points="27.141,87.584 9.391,76.577 25.891,76.577 	"/>
	<ellipse fill="#FFFFFF" cx="105.474" cy="77.095" rx="2.167" ry="5.691"/>
</g>
<g>
	<path fill="#FFFFFF" d="M569.129,124.563v-48.45c0-8.84-1.275-15.496-3.825-19.975c-2.55-4.476-7.225-6.715-14.025-6.715
		c-6.008,0-10.965,1.614-14.875,4.845c-3.909,3.229-6.659,7.283-8.244,12.155v58.14h-13.601v-85l11.941,0.062l0.129,10.309h0.68
		c2.72-3.626,6.375-6.601,10.965-8.925c4.59-2.322,10.057-3.485,16.405-3.485c4.646,0,8.726,0.539,12.24,1.615
		c3.512,1.078,6.431,2.975,8.755,5.694c2.321,2.721,4.08,6.375,5.27,10.966c1.19,4.59,1.785,10.398,1.785,17.425v51.34H569.129z"/>
	<path fill="#FFFFFF" d="M602.788,82.063c0-14.392,3.201-25.415,9.604-33.065c6.402-7.649,15.611-11.475,27.625-11.475
		c6.347,0,11.871,1.049,16.575,3.146c4.702,2.098,8.585,5.1,11.646,9.01c3.06,3.91,5.325,8.614,6.8,14.109
		c1.472,5.499,2.21,11.59,2.21,18.275c0,14.395-3.203,25.415-9.605,33.065c-6.403,7.649-15.613,11.475-27.625,11.475
		c-6.348,0-11.873-1.049-16.574-3.146c-4.704-2.096-8.585-5.1-11.646-9.01c-3.06-3.91-5.328-8.611-6.8-14.109
		C603.523,94.843,602.788,88.752,602.788,82.063z M616.898,82.063c0,4.309,0.425,8.444,1.274,12.41
		c0.851,3.969,2.181,7.424,3.995,10.37c1.812,2.948,4.191,5.328,7.14,7.14c2.946,1.814,6.517,2.72,10.71,2.72
		c15.412,0.114,23.12-10.766,23.12-32.64c0-4.42-0.425-8.611-1.274-12.58c-0.851-3.966-2.184-7.422-3.995-10.37
		c-1.814-2.945-4.194-5.296-7.141-7.055c-2.948-1.756-6.518-2.635-10.71-2.635C624.604,49.312,616.898,60.192,616.898,82.063z"/>
	<path fill="#FFFFFF" d="M746.333,60.583l-3.633,9.921l-21.42,55.93h-6.63l-29.58-86.87h14.79l16.83,49.47l3.435,10.217
		l3.705-10.557l18.189-49.13h9.86l19.55,49.64l4.07,11.672l0.145,0.398l3.605-12.41l15.13-49.3h12.92l-28.56,86.87h-6.63
		L749.84,70.333"/>
</g>
<text transform="matrix(1 0 0 1 810.5479 126.5693)" fill="#FF5321" font-family="'PTSans-Regular'" font-size="170">.</text>
</svg>
